<mxfile host="app.diagrams.net" modified="2023-04-26T19:25:10.212Z" agent="Mozilla/5.0 (Windows NT 10.0; Win64; x64) AppleWebKit/537.36 (KHTML, like Gecko) Chrome/112.0.0.0 Safari/537.36" etag="FfJ2C05EI6w92o7CXFfn" version="21.2.1" type="device">
  <diagram name="‫עמוד-1‬" id="9fCrIvGuDCoZxuhEc6fo">
    <mxGraphModel dx="2345" dy="1853" grid="1" gridSize="10" guides="1" tooltips="1" connect="1" arrows="1" fold="1" page="1" pageScale="1" pageWidth="827" pageHeight="1169" math="0" shadow="0">
      <root>
        <mxCell id="0" />
        <mxCell id="1" parent="0" />
        <mxCell id="LQusZBxUrNY0tpM4PHE5-1" value="HRmanger" style="shape=umlActor;verticalLabelPosition=bottom;verticalAlign=top;html=1;outlineConnect=0;" parent="1" vertex="1">
          <mxGeometry x="50" y="200" width="30" height="60" as="geometry" />
        </mxCell>
        <mxCell id="LQusZBxUrNY0tpM4PHE5-2" value="" style="endArrow=classic;html=1;rounded=0;" parent="1" edge="1">
          <mxGeometry width="50" height="50" relative="1" as="geometry">
            <mxPoint x="70" y="220" as="sourcePoint" />
            <mxPoint x="170" y="220" as="targetPoint" />
          </mxGeometry>
        </mxCell>
        <mxCell id="LQusZBxUrNY0tpM4PHE5-3" value="login למערכת" style="ellipse;whiteSpace=wrap;html=1;" parent="1" vertex="1">
          <mxGeometry x="170" y="180" width="120" height="80" as="geometry" />
        </mxCell>
        <mxCell id="LQusZBxUrNY0tpM4PHE5-5" value="include" style="endArrow=classic;html=1;rounded=0;exitX=1;exitY=1;exitDx=0;exitDy=0;entryX=0;entryY=0.5;entryDx=0;entryDy=0;" parent="1" source="LQusZBxUrNY0tpM4PHE5-3" target="LQusZBxUrNY0tpM4PHE5-8" edge="1">
          <mxGeometry width="50" height="50" relative="1" as="geometry">
            <mxPoint x="390" y="260" as="sourcePoint" />
            <mxPoint x="400" y="220" as="targetPoint" />
          </mxGeometry>
        </mxCell>
        <mxCell id="LQusZBxUrNY0tpM4PHE5-6" value="include" style="endArrow=classic;html=1;rounded=0;exitX=1;exitY=0;exitDx=0;exitDy=0;" parent="1" source="LQusZBxUrNY0tpM4PHE5-3" target="LQusZBxUrNY0tpM4PHE5-7" edge="1">
          <mxGeometry width="50" height="50" relative="1" as="geometry">
            <mxPoint x="272" y="248" as="sourcePoint" />
            <mxPoint x="360" y="300" as="targetPoint" />
          </mxGeometry>
        </mxCell>
        <mxCell id="LQusZBxUrNY0tpM4PHE5-7" value="בחירת משמרת וסניף" style="ellipse;whiteSpace=wrap;html=1;" parent="1" vertex="1">
          <mxGeometry x="314" y="90" width="100" height="70" as="geometry" />
        </mxCell>
        <mxCell id="LQusZBxUrNY0tpM4PHE5-8" value="בוחר עובד לפי id" style="ellipse;whiteSpace=wrap;html=1;" parent="1" vertex="1">
          <mxGeometry x="320" y="270" width="100" height="65" as="geometry" />
        </mxCell>
        <mxCell id="LQusZBxUrNY0tpM4PHE5-11" value="include" style="endArrow=classic;html=1;rounded=0;exitX=1.03;exitY=0.4;exitDx=0;exitDy=0;exitPerimeter=0;entryX=0.008;entryY=0.675;entryDx=0;entryDy=0;entryPerimeter=0;verticalAlign=bottom;fontSize=14;" parent="1" source="LQusZBxUrNY0tpM4PHE5-7" target="LQusZBxUrNY0tpM4PHE5-13" edge="1">
          <mxGeometry x="0.0015" width="50" height="50" relative="1" as="geometry">
            <mxPoint x="510" y="200" as="sourcePoint" />
            <mxPoint x="560" y="160" as="targetPoint" />
            <mxPoint as="offset" />
          </mxGeometry>
        </mxCell>
        <mxCell id="LQusZBxUrNY0tpM4PHE5-13" value="בדיקת זמינות" style="ellipse;whiteSpace=wrap;html=1;" parent="1" vertex="1">
          <mxGeometry x="740" y="80" width="120" height="80" as="geometry" />
        </mxCell>
        <mxCell id="LQusZBxUrNY0tpM4PHE5-16" value="בחירת תפקיד" style="ellipse;whiteSpace=wrap;html=1;" parent="1" vertex="1">
          <mxGeometry x="460" y="200" width="120" height="80" as="geometry" />
        </mxCell>
        <mxCell id="LQusZBxUrNY0tpM4PHE5-17" value="include" style="endArrow=classic;html=1;rounded=0;exitX=0.5;exitY=1;exitDx=0;exitDy=0;entryX=0.5;entryY=0;entryDx=0;entryDy=0;fontSize=13;" parent="1" source="LQusZBxUrNY0tpM4PHE5-16" target="LQusZBxUrNY0tpM4PHE5-18" edge="1">
          <mxGeometry y="10" width="50" height="50" relative="1" as="geometry">
            <mxPoint x="790" y="260" as="sourcePoint" />
            <mxPoint x="860" y="240" as="targetPoint" />
            <mxPoint y="-1" as="offset" />
          </mxGeometry>
        </mxCell>
        <mxCell id="LQusZBxUrNY0tpM4PHE5-18" value="בדיקת הסמכה" style="ellipse;whiteSpace=wrap;html=1;" parent="1" vertex="1">
          <mxGeometry x="460" y="380" width="120" height="80" as="geometry" />
        </mxCell>
        <mxCell id="LQusZBxUrNY0tpM4PHE5-19" value="extend" style="endArrow=classic;html=1;rounded=0;exitX=1;exitY=0.5;exitDx=0;exitDy=0;entryX=0;entryY=0.5;entryDx=0;entryDy=0;fontSize=14;verticalAlign=bottom;" parent="1" source="LQusZBxUrNY0tpM4PHE5-13" target="LQusZBxUrNY0tpM4PHE5-20" edge="1">
          <mxGeometry width="50" height="50" relative="1" as="geometry">
            <mxPoint x="770" y="130" as="sourcePoint" />
            <mxPoint x="1100" y="120" as="targetPoint" />
            <Array as="points">
              <mxPoint x="1000" y="120" />
            </Array>
          </mxGeometry>
        </mxCell>
        <mxCell id="LQusZBxUrNY0tpM4PHE5-20" value="שיבוץ עבודת למשמרת" style="ellipse;whiteSpace=wrap;html=1;" parent="1" vertex="1">
          <mxGeometry x="1240" y="80" width="120" height="80" as="geometry" />
        </mxCell>
        <mxCell id="LQusZBxUrNY0tpM4PHE5-21" value="" style="endArrow=classic;html=1;rounded=0;entryX=0.558;entryY=0;entryDx=0;entryDy=0;entryPerimeter=0;" parent="1" source="LQusZBxUrNY0tpM4PHE5-13" target="LQusZBxUrNY0tpM4PHE5-25" edge="1">
          <mxGeometry width="50" height="50" relative="1" as="geometry">
            <mxPoint x="580" y="170" as="sourcePoint" />
            <mxPoint x="480" y="310" as="targetPoint" />
          </mxGeometry>
        </mxCell>
        <mxCell id="LQusZBxUrNY0tpM4PHE5-22" value="" style="endArrow=classic;html=1;rounded=0;exitX=0.5;exitY=1;exitDx=0;exitDy=0;entryX=0.5;entryY=0;entryDx=0;entryDy=0;" parent="1" source="LQusZBxUrNY0tpM4PHE5-13" target="LQusZBxUrNY0tpM4PHE5-26" edge="1">
          <mxGeometry width="50" height="50" relative="1" as="geometry">
            <mxPoint x="790" y="360" as="sourcePoint" />
            <mxPoint x="600" y="350" as="targetPoint" />
          </mxGeometry>
        </mxCell>
        <mxCell id="LQusZBxUrNY0tpM4PHE5-23" value="" style="endArrow=classic;html=1;rounded=0;exitX=0.992;exitY=0.725;exitDx=0;exitDy=0;entryX=0.5;entryY=0;entryDx=0;entryDy=0;exitPerimeter=0;" parent="1" source="LQusZBxUrNY0tpM4PHE5-13" target="LQusZBxUrNY0tpM4PHE5-28" edge="1">
          <mxGeometry width="50" height="50" relative="1" as="geometry">
            <mxPoint x="790" y="360" as="sourcePoint" />
            <mxPoint x="830" y="310" as="targetPoint" />
          </mxGeometry>
        </mxCell>
        <mxCell id="LQusZBxUrNY0tpM4PHE5-24" value="" style="endArrow=classic;html=1;rounded=0;exitX=1;exitY=1;exitDx=0;exitDy=0;entryX=0.5;entryY=0;entryDx=0;entryDy=0;" parent="1" source="LQusZBxUrNY0tpM4PHE5-13" target="LQusZBxUrNY0tpM4PHE5-27" edge="1">
          <mxGeometry width="50" height="50" relative="1" as="geometry">
            <mxPoint x="790" y="360" as="sourcePoint" />
            <mxPoint x="750" y="340" as="targetPoint" />
          </mxGeometry>
        </mxCell>
        <mxCell id="LQusZBxUrNY0tpM4PHE5-25" value="בדיקת שהעובד הגיש זמינות למשמרת" style="ellipse;whiteSpace=wrap;html=1;" parent="1" vertex="1">
          <mxGeometry x="590" y="320" width="120" height="80" as="geometry" />
        </mxCell>
        <mxCell id="LQusZBxUrNY0tpM4PHE5-26" value="בדיקה שהעובדת אינו משובץ בסניף אחר" style="ellipse;whiteSpace=wrap;html=1;" parent="1" vertex="1">
          <mxGeometry x="760" y="340" width="120" height="80" as="geometry" />
        </mxCell>
        <mxCell id="LQusZBxUrNY0tpM4PHE5-27" value="שמספר המשמרות בשבוע אינו עולה על 6" style="ellipse;whiteSpace=wrap;html=1;" parent="1" vertex="1">
          <mxGeometry x="910" y="310" width="120" height="80" as="geometry" />
        </mxCell>
        <mxCell id="LQusZBxUrNY0tpM4PHE5-28" value="בדיקה שהעובד אינו משובץ למשמרת נוספת באותו יום" style="ellipse;whiteSpace=wrap;html=1;" parent="1" vertex="1">
          <mxGeometry x="1050" y="270" width="120" height="80" as="geometry" />
        </mxCell>
        <mxCell id="LQusZBxUrNY0tpM4PHE5-29" value="include" style="endArrow=classic;html=1;rounded=0;exitX=1;exitY=0.5;exitDx=0;exitDy=0;fontSize=13;verticalAlign=bottom;" parent="1" source="LQusZBxUrNY0tpM4PHE5-8" target="LQusZBxUrNY0tpM4PHE5-16" edge="1">
          <mxGeometry width="50" height="50" relative="1" as="geometry">
            <mxPoint x="440" y="330" as="sourcePoint" />
            <mxPoint x="490" y="280" as="targetPoint" />
          </mxGeometry>
        </mxCell>
        <mxCell id="LQusZBxUrNY0tpM4PHE5-30" value="include" style="endArrow=classic;html=1;rounded=0;exitX=1;exitY=0.5;exitDx=0;exitDy=0;verticalAlign=bottom;fontSize=14;" parent="1" source="LQusZBxUrNY0tpM4PHE5-16" target="LQusZBxUrNY0tpM4PHE5-13" edge="1">
          <mxGeometry width="50" height="50" relative="1" as="geometry">
            <mxPoint x="440" y="330" as="sourcePoint" />
            <mxPoint x="490" y="280" as="targetPoint" />
          </mxGeometry>
        </mxCell>
        <mxCell id="LQusZBxUrNY0tpM4PHE5-31" value="delivery manager" style="shape=umlActor;verticalLabelPosition=bottom;verticalAlign=top;html=1;outlineConnect=0;" parent="1" vertex="1">
          <mxGeometry x="30" y="550" width="30" height="60" as="geometry" />
        </mxCell>
        <mxCell id="LQusZBxUrNY0tpM4PHE5-32" value="הכנת רשימת נהגים שזמינים במשמרת" style="ellipse;whiteSpace=wrap;html=1;" parent="1" vertex="1">
          <mxGeometry x="100" y="390" width="120" height="80" as="geometry" />
        </mxCell>
        <mxCell id="LQusZBxUrNY0tpM4PHE5-33" value="" style="endArrow=classic;html=1;rounded=0;entryX=0.5;entryY=0;entryDx=0;entryDy=0;exitX=0.36;exitY=1.012;exitDx=0;exitDy=0;exitPerimeter=0;" parent="1" source="LQusZBxUrNY0tpM4PHE5-3" target="LQusZBxUrNY0tpM4PHE5-32" edge="1">
          <mxGeometry width="50" height="50" relative="1" as="geometry">
            <mxPoint x="370" y="510" as="sourcePoint" />
            <mxPoint x="420" y="460" as="targetPoint" />
          </mxGeometry>
        </mxCell>
        <mxCell id="LQusZBxUrNY0tpM4PHE5-35" value="בחירת נהג לשיבוץ במשמרת" style="ellipse;whiteSpace=wrap;html=1;" parent="1" vertex="1">
          <mxGeometry x="240" y="540" width="120" height="80" as="geometry" />
        </mxCell>
        <mxCell id="LQusZBxUrNY0tpM4PHE5-36" value="" style="endArrow=classic;html=1;rounded=0;entryX=0;entryY=0.5;entryDx=0;entryDy=0;" parent="1" source="LQusZBxUrNY0tpM4PHE5-31" target="LQusZBxUrNY0tpM4PHE5-35" edge="1">
          <mxGeometry width="50" height="50" relative="1" as="geometry">
            <mxPoint x="370" y="490" as="sourcePoint" />
            <mxPoint x="420" y="440" as="targetPoint" />
          </mxGeometry>
        </mxCell>
        <mxCell id="LQusZBxUrNY0tpM4PHE5-37" value="extend" style="endArrow=classic;html=1;rounded=0;exitX=0.973;exitY=0.269;exitDx=0;exitDy=0;exitPerimeter=0;entryX=0.5;entryY=1;entryDx=0;entryDy=0;fontSize=15;verticalAlign=bottom;" parent="1" source="LQusZBxUrNY0tpM4PHE5-35" target="LQusZBxUrNY0tpM4PHE5-20" edge="1">
          <mxGeometry width="50" height="50" relative="1" as="geometry">
            <mxPoint x="370" y="490" as="sourcePoint" />
            <mxPoint x="1140" y="640" as="targetPoint" />
            <Array as="points">
              <mxPoint x="1070" y="562" />
            </Array>
          </mxGeometry>
        </mxCell>
        <mxCell id="LQusZBxUrNY0tpM4PHE5-38" value="extend" style="endArrow=classic;html=1;rounded=0;entryX=0.414;entryY=0.012;entryDx=0;entryDy=0;fontSize=15;verticalAlign=bottom;exitX=1;exitY=1;exitDx=0;exitDy=0;entryPerimeter=0;" parent="1" source="LQusZBxUrNY0tpM4PHE5-32" target="LQusZBxUrNY0tpM4PHE5-35" edge="1">
          <mxGeometry width="50" height="50" relative="1" as="geometry">
            <mxPoint x="160" y="470" as="sourcePoint" />
            <mxPoint x="270" y="440" as="targetPoint" />
          </mxGeometry>
        </mxCell>
        <mxCell id="LQusZBxUrNY0tpM4PHE5-42" value="&lt;h1&gt;use case G&lt;/h1&gt;" style="text;html=1;strokeColor=none;fillColor=none;spacing=5;spacingTop=-20;whiteSpace=wrap;overflow=hidden;rounded=0;" parent="1" vertex="1">
          <mxGeometry width="190" height="120" as="geometry" />
        </mxCell>
        <mxCell id="LQusZBxUrNY0tpM4PHE5-44" value="&lt;h1&gt;Use case A&lt;/h1&gt;" style="text;html=1;strokeColor=none;fillColor=none;spacing=5;spacingTop=-20;whiteSpace=wrap;overflow=hidden;rounded=0;" parent="1" vertex="1">
          <mxGeometry y="-645" width="190" height="120" as="geometry" />
        </mxCell>
        <mxCell id="LQusZBxUrNY0tpM4PHE5-45" value="hr manager" style="shape=umlActor;verticalLabelPosition=bottom;verticalAlign=top;html=1;outlineConnect=0;" parent="1" vertex="1">
          <mxGeometry x="30" y="-560" width="30" height="60" as="geometry" />
        </mxCell>
        <mxCell id="LQusZBxUrNY0tpM4PHE5-46" value="" style="endArrow=classic;html=1;rounded=0;" parent="1" edge="1">
          <mxGeometry width="50" height="50" relative="1" as="geometry">
            <mxPoint x="50" y="-530" as="sourcePoint" />
            <mxPoint x="150" y="-530" as="targetPoint" />
          </mxGeometry>
        </mxCell>
        <mxCell id="LQusZBxUrNY0tpM4PHE5-47" value="login למערכת" style="ellipse;whiteSpace=wrap;html=1;" parent="1" vertex="1">
          <mxGeometry x="100" y="-570" width="120" height="80" as="geometry" />
        </mxCell>
        <mxCell id="LQusZBxUrNY0tpM4PHE5-48" value="" style="endArrow=classic;html=1;rounded=0;exitX=1;exitY=0.5;exitDx=0;exitDy=0;entryX=0;entryY=0.5;entryDx=0;entryDy=0;" parent="1" source="LQusZBxUrNY0tpM4PHE5-47" target="LQusZBxUrNY0tpM4PHE5-74" edge="1">
          <mxGeometry width="50" height="50" relative="1" as="geometry">
            <mxPoint x="380" y="-500" as="sourcePoint" />
            <mxPoint x="430" y="-530" as="targetPoint" />
          </mxGeometry>
        </mxCell>
        <mxCell id="LQusZBxUrNY0tpM4PHE5-49" value="יצרת עובד חדש&amp;nbsp;" style="ellipse;whiteSpace=wrap;html=1;" parent="1" vertex="1">
          <mxGeometry x="470" y="-570" width="120" height="80" as="geometry" />
        </mxCell>
        <mxCell id="LQusZBxUrNY0tpM4PHE5-50" value="include" style="endArrow=classic;html=1;rounded=0;exitX=0.5;exitY=0;exitDx=0;exitDy=0;fontSize=13;" parent="1" source="LQusZBxUrNY0tpM4PHE5-74" target="LQusZBxUrNY0tpM4PHE5-51" edge="1">
          <mxGeometry width="50" height="50" relative="1" as="geometry">
            <mxPoint x="380" y="-500" as="sourcePoint" />
            <mxPoint x="430" y="-640" as="targetPoint" />
          </mxGeometry>
        </mxCell>
        <mxCell id="LQusZBxUrNY0tpM4PHE5-51" value="בדיקה שלא קיים עובד זהה במערכת" style="ellipse;whiteSpace=wrap;html=1;" parent="1" vertex="1">
          <mxGeometry x="290" y="-700" width="120" height="80" as="geometry" />
        </mxCell>
        <mxCell id="LQusZBxUrNY0tpM4PHE5-52" value="" style="endArrow=classic;html=1;rounded=0;exitX=1;exitY=0.5;exitDx=0;exitDy=0;entryX=0;entryY=0.5;entryDx=0;entryDy=0;" parent="1" source="LQusZBxUrNY0tpM4PHE5-49" target="LQusZBxUrNY0tpM4PHE5-77" edge="1">
          <mxGeometry width="50" height="50" relative="1" as="geometry">
            <mxPoint x="540" y="-470" as="sourcePoint" />
            <mxPoint x="620" y="-530" as="targetPoint" />
          </mxGeometry>
        </mxCell>
        <mxCell id="LQusZBxUrNY0tpM4PHE5-53" value="שיוך עובד לסניף והבאת לוז הסניף" style="ellipse;whiteSpace=wrap;html=1;" parent="1" vertex="1">
          <mxGeometry x="827" y="-570" width="120" height="80" as="geometry" />
        </mxCell>
        <mxCell id="LQusZBxUrNY0tpM4PHE5-54" value="include" style="endArrow=classic;html=1;rounded=0;entryX=0.5;entryY=1;entryDx=0;entryDy=0;exitX=0.5;exitY=0;exitDx=0;exitDy=0;fontSize=13;" parent="1" source="LQusZBxUrNY0tpM4PHE5-77" target="LQusZBxUrNY0tpM4PHE5-55" edge="1">
          <mxGeometry width="50" height="50" relative="1" as="geometry">
            <mxPoint x="680" y="-570" as="sourcePoint" />
            <mxPoint x="680" y="-660" as="targetPoint" />
            <Array as="points">
              <mxPoint x="710" y="-600" />
            </Array>
          </mxGeometry>
        </mxCell>
        <mxCell id="LQusZBxUrNY0tpM4PHE5-55" value="בדיקה שקיים סניף&amp;nbsp;" style="ellipse;whiteSpace=wrap;html=1;" parent="1" vertex="1">
          <mxGeometry x="650" y="-700" width="120" height="80" as="geometry" />
        </mxCell>
        <mxCell id="LQusZBxUrNY0tpM4PHE5-57" value="הוספת הסמכה לעובד" style="ellipse;whiteSpace=wrap;html=1;" parent="1" vertex="1">
          <mxGeometry x="1260" y="-570" width="120" height="80" as="geometry" />
        </mxCell>
        <mxCell id="LQusZBxUrNY0tpM4PHE5-58" value="בדיקה שקיים תפקיד ועובד עדיין לא הוסמך אליו" style="ellipse;whiteSpace=wrap;html=1;" parent="1" vertex="1">
          <mxGeometry x="1020" y="-725" width="120" height="80" as="geometry" />
        </mxCell>
        <mxCell id="LQusZBxUrNY0tpM4PHE5-60" value="include" style="endArrow=classic;html=1;rounded=0;entryX=0.5;entryY=1;entryDx=0;entryDy=0;exitX=0.5;exitY=0;exitDx=0;exitDy=0;fontSize=14;" parent="1" source="LQusZBxUrNY0tpM4PHE5-81" target="LQusZBxUrNY0tpM4PHE5-58" edge="1">
          <mxGeometry width="50" height="50" relative="1" as="geometry">
            <mxPoint x="820" y="-510" as="sourcePoint" />
            <mxPoint x="870" y="-560" as="targetPoint" />
          </mxGeometry>
        </mxCell>
        <mxCell id="LQusZBxUrNY0tpM4PHE5-63" value="" style="endArrow=classic;html=1;rounded=0;exitX=1;exitY=1;exitDx=0;exitDy=0;exitPerimeter=0;entryX=0.576;entryY=1.01;entryDx=0;entryDy=0;entryPerimeter=0;" parent="1" source="LQusZBxUrNY0tpM4PHE5-45" target="LQusZBxUrNY0tpM4PHE5-77" edge="1">
          <mxGeometry width="50" height="50" relative="1" as="geometry">
            <mxPoint x="420" y="-480" as="sourcePoint" />
            <mxPoint x="720" y="-480" as="targetPoint" />
            <Array as="points">
              <mxPoint x="240" y="-400" />
              <mxPoint x="680" y="-400" />
            </Array>
          </mxGeometry>
        </mxCell>
        <mxCell id="LQusZBxUrNY0tpM4PHE5-64" value="" style="endArrow=classic;html=1;rounded=0;exitX=0;exitY=1;exitDx=0;exitDy=0;exitPerimeter=0;entryX=0.5;entryY=1;entryDx=0;entryDy=0;" parent="1" edge="1">
          <mxGeometry width="50" height="50" relative="1" as="geometry">
            <mxPoint x="31" y="-500" as="sourcePoint" />
            <mxPoint x="1081" y="-490" as="targetPoint" />
            <Array as="points">
              <mxPoint x="241" y="-360" />
              <mxPoint x="931" y="-360" />
            </Array>
          </mxGeometry>
        </mxCell>
        <mxCell id="LQusZBxUrNY0tpM4PHE5-65" value="employee" style="shape=umlActor;verticalLabelPosition=bottom;verticalAlign=top;html=1;outlineConnect=0;" parent="1" vertex="1">
          <mxGeometry x="30" y="-220" width="30" height="60" as="geometry" />
        </mxCell>
        <mxCell id="LQusZBxUrNY0tpM4PHE5-66" value="" style="endArrow=classic;html=1;rounded=0;exitX=0.5;exitY=0.5;exitDx=0;exitDy=0;exitPerimeter=0;entryX=0;entryY=0.5;entryDx=0;entryDy=0;" parent="1" source="LQusZBxUrNY0tpM4PHE5-65" target="LQusZBxUrNY0tpM4PHE5-67" edge="1">
          <mxGeometry width="50" height="50" relative="1" as="geometry">
            <mxPoint x="60" y="-140" as="sourcePoint" />
            <mxPoint x="160" y="-140" as="targetPoint" />
            <Array as="points" />
          </mxGeometry>
        </mxCell>
        <mxCell id="LQusZBxUrNY0tpM4PHE5-67" value="login למערכת" style="ellipse;whiteSpace=wrap;html=1;" parent="1" vertex="1">
          <mxGeometry x="180" y="-230" width="120" height="80" as="geometry" />
        </mxCell>
        <mxCell id="LQusZBxUrNY0tpM4PHE5-68" value="include" style="endArrow=classic;html=1;rounded=0;exitX=1;exitY=0.5;exitDx=0;exitDy=0;fontSize=13;verticalAlign=bottom;" parent="1" source="LQusZBxUrNY0tpM4PHE5-67" target="LQusZBxUrNY0tpM4PHE5-69" edge="1">
          <mxGeometry width="50" height="50" relative="1" as="geometry">
            <mxPoint x="420" y="-130" as="sourcePoint" />
            <mxPoint x="460" y="-190" as="targetPoint" />
          </mxGeometry>
        </mxCell>
        <mxCell id="LQusZBxUrNY0tpM4PHE5-69" value="בחירת משמרת&amp;nbsp;" style="ellipse;whiteSpace=wrap;html=1;" parent="1" vertex="1">
          <mxGeometry x="440" y="-230" width="120" height="80" as="geometry" />
        </mxCell>
        <mxCell id="LQusZBxUrNY0tpM4PHE5-70" value="extend" style="endArrow=classic;html=1;rounded=0;exitX=0.5;exitY=1;exitDx=0;exitDy=0;entryX=0.5;entryY=0;entryDx=0;entryDy=0;fontSize=14;horizontal=1;verticalAlign=bottom;" parent="1" source="LQusZBxUrNY0tpM4PHE5-69" target="LQusZBxUrNY0tpM4PHE5-73" edge="1">
          <mxGeometry width="50" height="50" relative="1" as="geometry">
            <mxPoint x="420" y="-10" as="sourcePoint" />
            <mxPoint x="500" y="-60" as="targetPoint" />
          </mxGeometry>
        </mxCell>
        <mxCell id="LQusZBxUrNY0tpM4PHE5-71" value="extend" style="endArrow=classic;html=1;rounded=0;exitX=1;exitY=0.5;exitDx=0;exitDy=0;fontSize=13;verticalAlign=bottom;" parent="1" source="LQusZBxUrNY0tpM4PHE5-69" edge="1">
          <mxGeometry width="50" height="50" relative="1" as="geometry">
            <mxPoint x="420" y="-10" as="sourcePoint" />
            <mxPoint x="700" y="-190" as="targetPoint" />
          </mxGeometry>
        </mxCell>
        <mxCell id="LQusZBxUrNY0tpM4PHE5-72" value="הוספת זמינות למשמרת" style="ellipse;whiteSpace=wrap;html=1;" parent="1" vertex="1">
          <mxGeometry x="700" y="-230" width="120" height="80" as="geometry" />
        </mxCell>
        <mxCell id="LQusZBxUrNY0tpM4PHE5-73" value="בדיקת אילוץ מנהל" style="ellipse;whiteSpace=wrap;html=1;" parent="1" vertex="1">
          <mxGeometry x="440" y="-60" width="120" height="80" as="geometry" />
        </mxCell>
        <mxCell id="LQusZBxUrNY0tpM4PHE5-74" value="קבלת פרטי עובד" style="ellipse;whiteSpace=wrap;html=1;" parent="1" vertex="1">
          <mxGeometry x="290" y="-570" width="120" height="80" as="geometry" />
        </mxCell>
        <mxCell id="LQusZBxUrNY0tpM4PHE5-76" value="" style="endArrow=classic;html=1;rounded=0;exitX=1;exitY=0.5;exitDx=0;exitDy=0;entryX=0;entryY=0.5;entryDx=0;entryDy=0;" parent="1" source="LQusZBxUrNY0tpM4PHE5-74" target="LQusZBxUrNY0tpM4PHE5-49" edge="1">
          <mxGeometry width="50" height="50" relative="1" as="geometry">
            <mxPoint x="530" y="-480" as="sourcePoint" />
            <mxPoint x="580" y="-530" as="targetPoint" />
          </mxGeometry>
        </mxCell>
        <mxCell id="LQusZBxUrNY0tpM4PHE5-77" value="בחירת סניף&amp;nbsp;" style="ellipse;whiteSpace=wrap;html=1;" parent="1" vertex="1">
          <mxGeometry x="650" y="-570" width="120" height="80" as="geometry" />
        </mxCell>
        <mxCell id="LQusZBxUrNY0tpM4PHE5-80" value="extand" style="endArrow=classic;html=1;rounded=0;entryX=0;entryY=0.5;entryDx=0;entryDy=0;exitX=1;exitY=0.5;exitDx=0;exitDy=0;fontSize=13;verticalAlign=bottom;" parent="1" source="LQusZBxUrNY0tpM4PHE5-77" target="LQusZBxUrNY0tpM4PHE5-53" edge="1">
          <mxGeometry width="50" height="50" relative="1" as="geometry">
            <mxPoint x="780" y="-500" as="sourcePoint" />
            <mxPoint x="770" y="-530" as="targetPoint" />
          </mxGeometry>
        </mxCell>
        <mxCell id="LQusZBxUrNY0tpM4PHE5-81" value="בחירת הסמכה לעובד" style="ellipse;whiteSpace=wrap;html=1;" parent="1" vertex="1">
          <mxGeometry x="1020" y="-570" width="120" height="80" as="geometry" />
        </mxCell>
        <mxCell id="LQusZBxUrNY0tpM4PHE5-82" value="בחירת הסמכה לעובד" style="ellipse;whiteSpace=wrap;html=1;" parent="1" vertex="1">
          <mxGeometry x="1760" y="-500" width="120" height="80" as="geometry" />
        </mxCell>
        <mxCell id="LQusZBxUrNY0tpM4PHE5-83" value="extand" style="endArrow=classic;html=1;rounded=0;exitX=1;exitY=0.5;exitDx=0;exitDy=0;fontSize=13;verticalAlign=bottom;" parent="1" source="LQusZBxUrNY0tpM4PHE5-53" edge="1">
          <mxGeometry width="50" height="50" relative="1" as="geometry">
            <mxPoint x="1210" y="-480" as="sourcePoint" />
            <mxPoint x="1020" y="-530" as="targetPoint" />
          </mxGeometry>
        </mxCell>
        <mxCell id="LQusZBxUrNY0tpM4PHE5-84" value="extand" style="endArrow=classic;html=1;rounded=0;exitX=1;exitY=0.5;exitDx=0;exitDy=0;fontSize=14;verticalAlign=bottom;" parent="1" source="LQusZBxUrNY0tpM4PHE5-81" edge="1">
          <mxGeometry width="50" height="50" relative="1" as="geometry">
            <mxPoint x="1210" y="-480" as="sourcePoint" />
            <mxPoint x="1260" y="-530" as="targetPoint" />
          </mxGeometry>
        </mxCell>
        <mxCell id="LQusZBxUrNY0tpM4PHE5-85" value="&lt;h1&gt;Use case B&lt;/h1&gt;" style="text;html=1;strokeColor=none;fillColor=none;spacing=5;spacingTop=-20;whiteSpace=wrap;overflow=hidden;rounded=0;" parent="1" vertex="1">
          <mxGeometry y="-360" width="190" height="120" as="geometry" />
        </mxCell>
        <mxCell id="LQusZBxUrNY0tpM4PHE5-86" value="uc1" style="text;html=1;strokeColor=none;fillColor=none;align=center;verticalAlign=middle;whiteSpace=wrap;rounded=0;fontSize=15;fontStyle=1" parent="1" vertex="1">
          <mxGeometry x="200" y="150" width="60" height="30" as="geometry" />
        </mxCell>
        <mxCell id="LQusZBxUrNY0tpM4PHE5-87" value="UC2" style="text;html=1;strokeColor=none;fillColor=none;align=center;verticalAlign=middle;whiteSpace=wrap;rounded=0;fontSize=15;fontStyle=1" parent="1" vertex="1">
          <mxGeometry x="340" y="60" width="60" height="30" as="geometry" />
        </mxCell>
        <mxCell id="LQusZBxUrNY0tpM4PHE5-88" value="UC3" style="text;html=1;strokeColor=none;fillColor=none;align=center;verticalAlign=middle;whiteSpace=wrap;rounded=0;fontSize=15;fontStyle=1" parent="1" vertex="1">
          <mxGeometry x="350" y="240" width="60" height="30" as="geometry" />
        </mxCell>
        <mxCell id="LQusZBxUrNY0tpM4PHE5-89" value="UC4" style="text;html=1;strokeColor=none;fillColor=none;align=center;verticalAlign=middle;whiteSpace=wrap;rounded=0;fontSize=15;fontStyle=1" parent="1" vertex="1">
          <mxGeometry x="780" y="50" width="60" height="30" as="geometry" />
        </mxCell>
        <mxCell id="LQusZBxUrNY0tpM4PHE5-90" value="USC5" style="text;html=1;strokeColor=none;fillColor=none;align=center;verticalAlign=middle;whiteSpace=wrap;rounded=0;fontSize=15;fontStyle=1" parent="1" vertex="1">
          <mxGeometry x="490" y="170" width="60" height="30" as="geometry" />
        </mxCell>
        <mxCell id="LQusZBxUrNY0tpM4PHE5-91" value="UC6" style="text;html=1;strokeColor=none;fillColor=none;align=center;verticalAlign=middle;whiteSpace=wrap;rounded=0;fontSize=15;fontStyle=1" parent="1" vertex="1">
          <mxGeometry x="450" y="350" width="60" height="30" as="geometry" />
        </mxCell>
        <mxCell id="LQusZBxUrNY0tpM4PHE5-92" value="UC7" style="text;html=1;strokeColor=none;fillColor=none;align=center;verticalAlign=middle;whiteSpace=wrap;rounded=0;fontSize=15;fontStyle=1" parent="1" vertex="1">
          <mxGeometry x="600" y="295" width="60" height="30" as="geometry" />
        </mxCell>
        <mxCell id="LQusZBxUrNY0tpM4PHE5-93" value="US8" style="text;html=1;strokeColor=none;fillColor=none;align=center;verticalAlign=middle;whiteSpace=wrap;rounded=0;fontSize=15;fontStyle=1" parent="1" vertex="1">
          <mxGeometry x="740" y="320" width="60" height="30" as="geometry" />
        </mxCell>
        <mxCell id="LQusZBxUrNY0tpM4PHE5-94" value="US9" style="text;html=1;strokeColor=none;fillColor=none;align=center;verticalAlign=middle;whiteSpace=wrap;rounded=0;fontSize=15;fontStyle=1" parent="1" vertex="1">
          <mxGeometry x="900" y="287.5" width="60" height="30" as="geometry" />
        </mxCell>
        <mxCell id="LQusZBxUrNY0tpM4PHE5-95" value="US10" style="text;html=1;strokeColor=none;fillColor=none;align=center;verticalAlign=middle;whiteSpace=wrap;rounded=0;fontSize=15;fontStyle=1" parent="1" vertex="1">
          <mxGeometry x="1120" y="240" width="60" height="30" as="geometry" />
        </mxCell>
        <mxCell id="LQusZBxUrNY0tpM4PHE5-96" value="US11" style="text;html=1;strokeColor=none;fillColor=none;align=center;verticalAlign=middle;whiteSpace=wrap;rounded=0;fontSize=15;fontStyle=1" parent="1" vertex="1">
          <mxGeometry x="1360" y="110" width="60" height="30" as="geometry" />
        </mxCell>
        <mxCell id="LQusZBxUrNY0tpM4PHE5-97" value="UC12" style="text;html=1;strokeColor=none;fillColor=none;align=center;verticalAlign=middle;whiteSpace=wrap;rounded=0;fontSize=15;fontStyle=1" parent="1" vertex="1">
          <mxGeometry x="170" y="370" width="60" height="30" as="geometry" />
        </mxCell>
        <mxCell id="LQusZBxUrNY0tpM4PHE5-98" value="UC13" style="text;html=1;strokeColor=none;fillColor=none;align=center;verticalAlign=middle;whiteSpace=wrap;rounded=0;fontSize=15;fontStyle=1" parent="1" vertex="1">
          <mxGeometry x="300" y="520" width="60" height="30" as="geometry" />
        </mxCell>
        <mxCell id="LQusZBxUrNY0tpM4PHE5-99" value="&lt;h1&gt;Use Case H&lt;/h1&gt;" style="text;html=1;strokeColor=none;fillColor=none;spacing=5;spacingTop=-20;whiteSpace=wrap;overflow=hidden;rounded=0;" parent="1" vertex="1">
          <mxGeometry x="10" y="850" width="190" height="120" as="geometry" />
        </mxCell>
        <mxCell id="LQusZBxUrNY0tpM4PHE5-100" value="delivery manager" style="shape=umlActor;verticalLabelPosition=bottom;verticalAlign=top;html=1;outlineConnect=0;" parent="1" vertex="1">
          <mxGeometry x="40" y="1140" width="30" height="60" as="geometry" />
        </mxCell>
        <mxCell id="LQusZBxUrNY0tpM4PHE5-102" value="" style="endArrow=classic;html=1;rounded=0;exitX=0.5;exitY=0.5;exitDx=0;exitDy=0;exitPerimeter=0;entryX=0;entryY=0.375;entryDx=0;entryDy=0;entryPerimeter=0;" parent="1" source="LQusZBxUrNY0tpM4PHE5-100" target="LQusZBxUrNY0tpM4PHE5-104" edge="1">
          <mxGeometry width="50" height="50" relative="1" as="geometry">
            <mxPoint x="90" y="930" as="sourcePoint" />
            <mxPoint x="160" y="870" as="targetPoint" />
          </mxGeometry>
        </mxCell>
        <mxCell id="LQusZBxUrNY0tpM4PHE5-103" value="" style="endArrow=classic;html=1;rounded=0;exitX=0.75;exitY=0.1;exitDx=0;exitDy=0;exitPerimeter=0;entryX=-0.002;entryY=0.605;entryDx=0;entryDy=0;entryPerimeter=0;" parent="1" source="LQusZBxUrNY0tpM4PHE5-100" target="LQusZBxUrNY0tpM4PHE5-105" edge="1">
          <mxGeometry width="50" height="50" relative="1" as="geometry">
            <mxPoint x="90" y="930" as="sourcePoint" />
            <mxPoint x="220" y="770" as="targetPoint" />
          </mxGeometry>
        </mxCell>
        <mxCell id="LQusZBxUrNY0tpM4PHE5-104" value="בחירת משאית" style="ellipse;whiteSpace=wrap;html=1;" parent="1" vertex="1">
          <mxGeometry x="240" y="1150" width="120" height="80" as="geometry" />
        </mxCell>
        <mxCell id="LQusZBxUrNY0tpM4PHE5-105" value="שקילת משאית" style="ellipse;whiteSpace=wrap;html=1;" parent="1" vertex="1">
          <mxGeometry x="250" y="1050" width="120" height="80" as="geometry" />
        </mxCell>
        <mxCell id="LQusZBxUrNY0tpM4PHE5-106" value="extend" style="endArrow=classic;html=1;rounded=0;exitX=1;exitY=0.5;exitDx=0;exitDy=0;fontSize=13;verticalAlign=bottom;" parent="1" source="LQusZBxUrNY0tpM4PHE5-105" target="LQusZBxUrNY0tpM4PHE5-107" edge="1">
          <mxGeometry width="50" height="50" relative="1" as="geometry">
            <mxPoint x="390" y="1050" as="sourcePoint" />
            <mxPoint x="640" y="920" as="targetPoint" />
          </mxGeometry>
        </mxCell>
        <mxCell id="LQusZBxUrNY0tpM4PHE5-107" value="הוצאת משלוח" style="ellipse;whiteSpace=wrap;html=1;" parent="1" vertex="1">
          <mxGeometry x="760" y="1050" width="120" height="80" as="geometry" />
        </mxCell>
        <mxCell id="LQusZBxUrNY0tpM4PHE5-108" value="extend" style="endArrow=classic;html=1;rounded=0;exitX=0.5;exitY=0;exitDx=0;exitDy=0;fontSize=13;" parent="1" source="LQusZBxUrNY0tpM4PHE5-105" target="LQusZBxUrNY0tpM4PHE5-109" edge="1">
          <mxGeometry width="50" height="50" relative="1" as="geometry">
            <mxPoint x="390" y="1050" as="sourcePoint" />
            <mxPoint x="360" y="960" as="targetPoint" />
          </mxGeometry>
        </mxCell>
        <mxCell id="LQusZBxUrNY0tpM4PHE5-109" value="תכנון נסיעה מחדש&amp;nbsp;" style="ellipse;whiteSpace=wrap;html=1;" parent="1" vertex="1">
          <mxGeometry x="250" y="890" width="120" height="80" as="geometry" />
        </mxCell>
        <mxCell id="LQusZBxUrNY0tpM4PHE5-110" value="extend" style="endArrow=classic;html=1;rounded=0;entryX=0;entryY=0.5;entryDx=0;entryDy=0;exitX=0.951;exitY=0.769;exitDx=0;exitDy=0;exitPerimeter=0;fontSize=13;" parent="1" source="LQusZBxUrNY0tpM4PHE5-109" target="LQusZBxUrNY0tpM4PHE5-112" edge="1">
          <mxGeometry width="50" height="50" relative="1" as="geometry">
            <mxPoint x="350" y="940" as="sourcePoint" />
            <mxPoint x="540" y="1000" as="targetPoint" />
          </mxGeometry>
        </mxCell>
        <mxCell id="LQusZBxUrNY0tpM4PHE5-111" value="extend" style="endArrow=classic;html=1;rounded=0;exitX=1;exitY=0.5;exitDx=0;exitDy=0;fontSize=13;" parent="1" source="LQusZBxUrNY0tpM4PHE5-109" edge="1">
          <mxGeometry x="0.114" y="2" width="50" height="50" relative="1" as="geometry">
            <mxPoint x="390" y="1050" as="sourcePoint" />
            <mxPoint x="550" y="920" as="targetPoint" />
            <Array as="points">
              <mxPoint x="500" y="920" />
            </Array>
            <mxPoint as="offset" />
          </mxGeometry>
        </mxCell>
        <mxCell id="LQusZBxUrNY0tpM4PHE5-112" value="החלפת משאית" style="ellipse;whiteSpace=wrap;html=1;" parent="1" vertex="1">
          <mxGeometry x="490" y="960" width="120" height="80" as="geometry" />
        </mxCell>
        <mxCell id="LQusZBxUrNY0tpM4PHE5-113" value="הורדת תחנות" style="ellipse;whiteSpace=wrap;html=1;" parent="1" vertex="1">
          <mxGeometry x="550" y="880" width="120" height="80" as="geometry" />
        </mxCell>
        <mxCell id="LQusZBxUrNY0tpM4PHE5-114" value="החלפת תחנות" style="ellipse;whiteSpace=wrap;html=1;" parent="1" vertex="1">
          <mxGeometry x="480" y="780" width="120" height="80" as="geometry" />
        </mxCell>
        <mxCell id="LQusZBxUrNY0tpM4PHE5-115" value="החלפת מוצרים" style="ellipse;whiteSpace=wrap;html=1;" parent="1" vertex="1">
          <mxGeometry x="310" y="720" width="120" height="80" as="geometry" />
        </mxCell>
        <mxCell id="LQusZBxUrNY0tpM4PHE5-116" value="extend" style="endArrow=classic;html=1;rounded=0;exitX=0.591;exitY=0.017;exitDx=0;exitDy=0;exitPerimeter=0;fontSize=13;" parent="1" source="LQusZBxUrNY0tpM4PHE5-109" edge="1">
          <mxGeometry width="50" height="50" relative="1" as="geometry">
            <mxPoint x="304" y="850" as="sourcePoint" />
            <mxPoint x="354" y="800" as="targetPoint" />
          </mxGeometry>
        </mxCell>
        <mxCell id="LQusZBxUrNY0tpM4PHE5-117" value="extend" style="endArrow=classic;html=1;rounded=0;exitX=1;exitY=0;exitDx=0;exitDy=0;entryX=0.061;entryY=0.774;entryDx=0;entryDy=0;entryPerimeter=0;fontSize=13;" parent="1" source="LQusZBxUrNY0tpM4PHE5-109" edge="1">
          <mxGeometry width="50" height="50" relative="1" as="geometry">
            <mxPoint x="390" y="1050" as="sourcePoint" />
            <mxPoint x="487.32000000000016" y="831.9200000000001" as="targetPoint" />
            <Array as="points">
              <mxPoint x="430" y="860" />
            </Array>
          </mxGeometry>
        </mxCell>
        <mxCell id="LQusZBxUrNY0tpM4PHE5-121" value="בקשה לרשימת נהגים אשר זמינים לעבוד" style="ellipse;whiteSpace=wrap;html=1;" parent="1" vertex="1">
          <mxGeometry x="240" y="1330" width="120" height="80" as="geometry" />
        </mxCell>
        <mxCell id="LQusZBxUrNY0tpM4PHE5-123" value="include" style="endArrow=classic;html=1;rounded=0;exitX=1;exitY=0.5;exitDx=0;exitDy=0;" parent="1" source="LQusZBxUrNY0tpM4PHE5-121" target="LQusZBxUrNY0tpM4PHE5-124" edge="1">
          <mxGeometry width="50" height="50" relative="1" as="geometry">
            <mxPoint x="390" y="1390" as="sourcePoint" />
            <mxPoint x="470" y="1370" as="targetPoint" />
          </mxGeometry>
        </mxCell>
        <mxCell id="LQusZBxUrNY0tpM4PHE5-124" value="&amp;nbsp;בחירת נהג לפי רישיון" style="ellipse;whiteSpace=wrap;html=1;" parent="1" vertex="1">
          <mxGeometry x="440" y="1330" width="120" height="80" as="geometry" />
        </mxCell>
        <mxCell id="LQusZBxUrNY0tpM4PHE5-125" value="שיבוץ נהג למשמרת" style="ellipse;whiteSpace=wrap;html=1;" parent="1" vertex="1">
          <mxGeometry x="660" y="1330" width="120" height="80" as="geometry" />
        </mxCell>
        <mxCell id="LQusZBxUrNY0tpM4PHE5-126" value="include" style="endArrow=classic;html=1;rounded=0;exitX=1;exitY=0.5;exitDx=0;exitDy=0;entryX=0;entryY=0.5;entryDx=0;entryDy=0;" parent="1" source="LQusZBxUrNY0tpM4PHE5-124" target="LQusZBxUrNY0tpM4PHE5-125" edge="1">
          <mxGeometry width="50" height="50" relative="1" as="geometry">
            <mxPoint x="390" y="1390" as="sourcePoint" />
            <mxPoint x="440" y="1340" as="targetPoint" />
          </mxGeometry>
        </mxCell>
        <mxCell id="LQusZBxUrNY0tpM4PHE5-127" value="HR manager" style="shape=umlActor;verticalLabelPosition=bottom;verticalAlign=top;html=1;outlineConnect=0;" parent="1" vertex="1">
          <mxGeometry x="50" y="1290" width="30" height="60" as="geometry" />
        </mxCell>
        <mxCell id="LQusZBxUrNY0tpM4PHE5-128" value="" style="endArrow=classic;html=1;rounded=0;entryX=0;entryY=0.5;entryDx=0;entryDy=0;exitX=0.5;exitY=0.5;exitDx=0;exitDy=0;exitPerimeter=0;" parent="1" source="LQusZBxUrNY0tpM4PHE5-127" target="LQusZBxUrNY0tpM4PHE5-121" edge="1">
          <mxGeometry width="50" height="50" relative="1" as="geometry">
            <mxPoint x="390" y="1220" as="sourcePoint" />
            <mxPoint x="440" y="1170" as="targetPoint" />
            <Array as="points">
              <mxPoint x="180" y="1360" />
            </Array>
          </mxGeometry>
        </mxCell>
        <mxCell id="LQusZBxUrNY0tpM4PHE5-129" value="" style="endArrow=classic;html=1;rounded=0;entryX=0.5;entryY=1;entryDx=0;entryDy=0;" parent="1" target="LQusZBxUrNY0tpM4PHE5-125" edge="1">
          <mxGeometry width="50" height="50" relative="1" as="geometry">
            <mxPoint x="90" y="1350" as="sourcePoint" />
            <mxPoint x="440" y="1170" as="targetPoint" />
            <Array as="points">
              <mxPoint x="190" y="1480" />
              <mxPoint x="720" y="1480" />
            </Array>
          </mxGeometry>
        </mxCell>
        <mxCell id="LQusZBxUrNY0tpM4PHE5-136" value="UC8" style="text;html=1;strokeColor=none;fillColor=none;align=center;verticalAlign=middle;whiteSpace=wrap;rounded=0;fontSize=15;fontStyle=1" parent="1" vertex="1">
          <mxGeometry x="190" y="905" width="60" height="30" as="geometry" />
        </mxCell>
        <mxCell id="LQusZBxUrNY0tpM4PHE5-138" value="UC9" style="text;html=1;strokeColor=none;fillColor=none;align=center;verticalAlign=middle;whiteSpace=wrap;rounded=0;fontSize=15;fontStyle=1" parent="1" vertex="1">
          <mxGeometry x="350" y="690" width="60" height="30" as="geometry" />
        </mxCell>
        <mxCell id="LQusZBxUrNY0tpM4PHE5-139" value="UC11" style="text;html=1;strokeColor=none;fillColor=none;align=center;verticalAlign=middle;whiteSpace=wrap;rounded=0;fontSize=15;fontStyle=1" parent="1" vertex="1">
          <mxGeometry x="530" y="740" width="60" height="30" as="geometry" />
        </mxCell>
        <mxCell id="LQusZBxUrNY0tpM4PHE5-140" value="UC11" style="text;html=1;strokeColor=none;fillColor=none;align=center;verticalAlign=middle;whiteSpace=wrap;rounded=0;fontSize=15;fontStyle=1" parent="1" vertex="1">
          <mxGeometry x="590" y="850" width="60" height="30" as="geometry" />
        </mxCell>
        <mxCell id="LQusZBxUrNY0tpM4PHE5-141" value="UC12" style="text;html=1;strokeColor=none;fillColor=none;align=center;verticalAlign=middle;whiteSpace=wrap;rounded=0;fontSize=15;fontStyle=1" parent="1" vertex="1">
          <mxGeometry x="600" y="970" width="60" height="30" as="geometry" />
        </mxCell>
        <mxCell id="LQusZBxUrNY0tpM4PHE5-142" value="UC6" style="text;html=1;strokeColor=none;fillColor=none;align=center;verticalAlign=middle;whiteSpace=wrap;rounded=0;fontSize=15;fontStyle=1" parent="1" vertex="1">
          <mxGeometry x="200" y="1030" width="60" height="30" as="geometry" />
        </mxCell>
        <mxCell id="LQusZBxUrNY0tpM4PHE5-143" value="UC5" style="text;html=1;strokeColor=none;fillColor=none;align=center;verticalAlign=middle;whiteSpace=wrap;rounded=0;fontSize=15;fontStyle=1" parent="1" vertex="1">
          <mxGeometry x="790" y="1020" width="60" height="30" as="geometry" />
        </mxCell>
        <mxCell id="LQusZBxUrNY0tpM4PHE5-144" value="UC1" style="text;html=1;strokeColor=none;fillColor=none;align=center;verticalAlign=middle;whiteSpace=wrap;rounded=0;fontSize=15;fontStyle=1" parent="1" vertex="1">
          <mxGeometry x="354" y="1190" width="60" height="30" as="geometry" />
        </mxCell>
        <mxCell id="LQusZBxUrNY0tpM4PHE5-146" value="UC3" style="text;html=1;strokeColor=none;fillColor=none;align=center;verticalAlign=middle;whiteSpace=wrap;rounded=0;fontSize=15;fontStyle=1" parent="1" vertex="1">
          <mxGeometry x="480" y="1305" width="60" height="30" as="geometry" />
        </mxCell>
        <mxCell id="LQusZBxUrNY0tpM4PHE5-147" value="UC2" style="text;html=1;strokeColor=none;fillColor=none;align=center;verticalAlign=middle;whiteSpace=wrap;rounded=0;fontSize=15;fontStyle=1" parent="1" vertex="1">
          <mxGeometry x="280" y="1305" width="60" height="30" as="geometry" />
        </mxCell>
        <mxCell id="LQusZBxUrNY0tpM4PHE5-148" value="UC4" style="text;html=1;strokeColor=none;fillColor=none;align=center;verticalAlign=middle;whiteSpace=wrap;rounded=0;fontSize=15;fontStyle=1" parent="1" vertex="1">
          <mxGeometry x="690" y="1305" width="60" height="30" as="geometry" />
        </mxCell>
        <mxCell id="uabKmT365Pd-j0PNxJrj-1" value="include" style="endArrow=classic;html=1;rounded=0;entryX=0;entryY=1;entryDx=0;entryDy=0;exitX=0.239;exitY=0.966;exitDx=0;exitDy=0;exitPerimeter=0;" edge="1" parent="1" source="LQusZBxUrNY0tpM4PHE5-104" target="LQusZBxUrNY0tpM4PHE5-147">
          <mxGeometry width="50" height="50" relative="1" as="geometry">
            <mxPoint x="570" y="1380" as="sourcePoint" />
            <mxPoint x="670" y="1380" as="targetPoint" />
            <Array as="points">
              <mxPoint x="269" y="1280" />
            </Array>
          </mxGeometry>
        </mxCell>
        <mxCell id="uabKmT365Pd-j0PNxJrj-2" value="include" style="endArrow=classic;html=1;rounded=0;exitX=0.5;exitY=1;exitDx=0;exitDy=0;" edge="1" parent="1" source="LQusZBxUrNY0tpM4PHE5-112">
          <mxGeometry width="50" height="50" relative="1" as="geometry">
            <mxPoint x="570" y="1380" as="sourcePoint" />
            <mxPoint x="360" y="1180" as="targetPoint" />
          </mxGeometry>
        </mxCell>
      </root>
    </mxGraphModel>
  </diagram>
</mxfile>
